<svg width="316" height="76" viewBox="0 0 316 76" fill="none" xmlns="http://www.w3.org/2000/svg">
<rect width="94" height="76" rx="8" fill="url(#paint0_linear_3480_5165)"/>
<g clip-path="url(#clip0_3480_5165)">
<path d="M37 38C37.5304 38 38.0391 37.7893 38.4142 37.4142C38.7893 37.0391 39 36.5304 39 36C39 35.4696 38.7893 34.9609 38.4142 34.5858C38.0391 34.2107 37.5304 34 37 34H29C28.4696 34 27.9609 34.2107 27.5858 34.5858C27.2107 34.9609 27 35.4696 27 36C27 36.5304 27.2107 37.0391 27.5858 37.4142C27.9609 37.7893 28.4696 38 29 38H29.5C29.6326 38 29.7598 38.0527 29.8536 38.1464C29.9473 38.2402 30 38.3674 30 38.5V46.5C30 46.6326 29.9473 46.7598 29.8536 46.8536C29.7598 46.9473 29.6326 47 29.5 47H29C28.4696 47 27.9609 47.2107 27.5858 47.5858C27.2107 47.9609 27 48.4696 27 49C27 49.5304 27.2107 50.0391 27.5858 50.4142C27.9609 50.7893 28.4696 51 29 51H37C37.5304 51 38.0391 50.7893 38.4142 50.4142C38.7893 50.0391 39 49.5304 39 49C39 48.4696 38.7893 47.9609 38.4142 47.5858C38.0391 47.2107 37.5304 47 37 47H36.5C36.3674 47 36.2402 46.9473 36.1464 46.8536C36.0527 46.7598 36 46.6326 36 46.5V38.5C36 38.3674 36.0527 38.2402 36.1464 38.1464C36.2402 38.0527 36.3674 38 36.5 38H37Z" fill="#7049F7"/>
<path d="M51 38C51.5304 38 52.0391 37.7893 52.4142 37.4142C52.7893 37.0391 53 36.5304 53 36C53 35.4696 52.7893 34.9609 52.4142 34.5858C52.0391 34.2107 51.5304 34 51 34H43C42.4696 34 41.9609 34.2107 41.5858 34.5858C41.2107 34.9609 41 35.4696 41 36C41 36.5304 41.2107 37.0391 41.5858 37.4142C41.9609 37.7893 42.4696 38 43 38H43.5C43.6326 38 43.7598 38.0527 43.8536 38.1464C43.9473 38.2402 44 38.3674 44 38.5V46.5C44 46.6326 43.9473 46.7598 43.8536 46.8536C43.7598 46.9473 43.6326 47 43.5 47H43C42.4696 47 41.9609 47.2107 41.5858 47.5858C41.2107 47.9609 41 48.4696 41 49C41 49.5304 41.2107 50.0391 41.5858 50.4142C41.9609 50.7893 42.4696 51 43 51H51C51.5304 51 52.0391 50.7893 52.4142 50.4142C52.7893 50.0391 53 49.5304 53 49C53 48.4696 52.7893 47.9609 52.4142 47.5858C52.0391 47.2107 51.5304 47 51 47H50.5C50.3674 47 50.2402 46.9473 50.1464 46.8536C50.0527 46.7598 50 46.6326 50 46.5V38.5C50 38.3674 50.0527 38.2402 50.1464 38.1464C50.2402 38.0527 50.3674 38 50.5 38H51Z" fill="#7049F7"/>
<path d="M66 38C66.5304 38 67.0391 37.7893 67.4142 37.4142C67.7893 37.0391 68 36.5304 68 36C68 35.4696 67.7893 34.9609 67.4142 34.5858C67.0391 34.2107 66.5304 34 66 34H58C57.4696 34 56.9609 34.2107 56.5858 34.5858C56.2107 34.9609 56 35.4696 56 36C56 36.5304 56.2107 37.0391 56.5858 37.4142C56.9609 37.7893 57.4696 38 58 38H58.5C58.6326 38 58.7598 38.0527 58.8536 38.1464C58.9473 38.2402 59 38.3674 59 38.5V46.5C59 46.6326 58.9473 46.7598 58.8536 46.8536C58.7598 46.9473 58.6326 47 58.5 47H58C57.4696 47 56.9609 47.2107 56.5858 47.5858C56.2107 47.9609 56 48.4696 56 49C56 49.5304 56.2107 50.0391 56.5858 50.4142C56.9609 50.7893 57.4696 51 58 51H66C66.5304 51 67.0391 50.7893 67.4142 50.4142C67.7893 50.0391 68 49.5304 68 49C68 48.4696 67.7893 47.9609 67.4142 47.5858C67.0391 47.2107 66.5304 47 66 47H65.5C65.3674 47 65.2402 46.9473 65.1464 46.8536C65.0527 46.7598 65 46.6326 65 46.5V38.5C65 38.3674 65.0527 38.2402 65.1464 38.1464C65.2402 38.0527 65.3674 38 65.5 38H66Z" fill="#7049F7"/>
<path d="M27.8992 31.0003H66.2992C66.6885 31.009 67.0718 30.9039 67.4023 30.6978C67.7327 30.4918 67.9957 30.1937 68.1592 29.8403C68.3186 29.4668 68.3439 29.0497 68.2309 28.6597C68.1179 28.2697 67.8735 27.9307 67.5392 27.7003L49.2792 14.4003C48.9229 14.1561 48.5011 14.0254 48.0692 14.0254C47.6373 14.0254 47.2154 14.1561 46.8592 14.4003L26.7392 27.6603C26.3878 27.8762 26.1246 28.2099 25.9964 28.6018C25.8682 28.9938 25.8833 29.4185 26.0392 29.8003C26.1966 30.1612 26.4572 30.4676 26.788 30.6811C27.1189 30.8946 27.5054 31.0056 27.8992 31.0003Z" fill="#7049F7"/>
<path d="M70.8398 60.44L66.8398 54.44C66.7459 54.3041 66.6204 54.1931 66.4741 54.1165C66.3278 54.0398 66.165 53.9998 65.9998 54H27.9998C27.8347 53.9998 27.6719 54.0398 27.5256 54.1165C27.3793 54.1931 27.2538 54.3041 27.1598 54.44L23.1598 60.44C23.0576 60.5912 22.9987 60.7675 22.9895 60.9498C22.9804 61.1321 23.0213 61.3135 23.1078 61.4742C23.1943 61.6349 23.3232 61.7688 23.4805 61.8615C23.6377 61.9542 23.8173 62.0021 23.9998 62H69.9998C70.1824 62.0021 70.362 61.9542 70.5192 61.8615C70.6764 61.7688 70.8053 61.6349 70.8919 61.4742C70.9784 61.3135 71.0193 61.1321 71.0101 60.9498C71.0009 60.7675 70.9421 60.5912 70.8398 60.44Z" fill="#7049F7"/>
</g>
<rect x="111" width="94" height="76" rx="8" fill="url(#paint1_linear_3480_5165)"/>
<path fill-rule="evenodd" clip-rule="evenodd" d="M182 28.3998V25.9998C182 24.0902 181.241 22.2589 179.891 20.9086C178.541 19.5584 176.71 18.7998 174.8 18.7998H141.2C139.29 18.7998 137.459 19.5584 136.109 20.9086C134.759 22.2589 134 24.0902 134 25.9998V28.3998H182ZM134 49.9998V33.1998H182V49.9998C182 51.9094 181.241 53.7407 179.891 55.091C178.541 56.4412 176.71 57.1998 174.8 57.1998H141.2C139.29 57.1998 137.459 56.4412 136.109 55.091C134.759 53.7407 134 51.9094 134 49.9998ZM170 47.5998H165.2C164.563 47.5998 163.953 47.3469 163.503 46.8969C163.053 46.4468 162.8 45.8363 162.8 45.1998C162.8 44.5633 163.053 43.9528 163.503 43.5027C163.953 43.0527 164.563 42.7998 165.2 42.7998H170C170.637 42.7998 171.247 43.0527 171.697 43.5027C172.147 43.9528 172.4 44.5633 172.4 45.1998C172.4 45.8363 172.147 46.4468 171.697 46.8969C171.247 47.3469 170.637 47.5998 170 47.5998Z" fill="url(#paint2_linear_3480_5165)"/>
<rect x="222" width="94" height="76" rx="8" fill="url(#paint3_linear_3480_5165)"/>
<g clip-path="url(#clip1_3480_5165)">
<path d="M276 14H262C259.615 14.0053 257.329 14.9552 255.642 16.6419C253.955 18.3286 253.005 20.6147 253 23V57C253 57.6566 253.129 58.3068 253.381 58.9134C253.632 59.52 254 60.0712 254.464 60.5355C254.929 60.9998 255.48 61.3681 256.087 61.6194C256.693 61.8707 257.343 62 258 62H280C280.657 62 281.307 61.8707 281.913 61.6194C282.52 61.3681 283.071 60.9998 283.536 60.5355C284 60.0712 284.368 59.52 284.619 58.9134C284.871 58.3068 285 57.6566 285 57V23C284.995 20.6147 284.045 18.3286 282.358 16.6419C280.671 14.9552 278.385 14.0053 276 14ZM278 52C278.396 52 278.782 52.1173 279.111 52.3371C279.44 52.5568 279.696 52.8692 279.848 53.2346C279.999 53.6001 280.039 54.0022 279.962 54.3902C279.884 54.7781 279.694 55.1345 279.414 55.4142C279.135 55.6939 278.778 55.8844 278.39 55.9616C278.002 56.0387 277.6 55.9991 277.235 55.8478C276.869 55.6964 276.557 55.44 276.337 55.1111C276.117 54.7822 276 54.3956 276 54C276 53.4696 276.211 52.9609 276.586 52.5858C276.961 52.2107 277.47 52 278 52ZM276 47C276 46.6044 276.117 46.2178 276.337 45.8889C276.557 45.56 276.869 45.3036 277.235 45.1522C277.6 45.0009 278.002 44.9613 278.39 45.0384C278.778 45.1156 279.135 45.3061 279.414 45.5858C279.694 45.8655 279.884 46.2219 279.962 46.6098C280.039 46.9978 279.999 47.3999 279.848 47.7654C279.696 48.1308 279.44 48.4432 279.111 48.6629C278.782 48.8827 278.396 49 278 49C277.47 49 276.961 48.7893 276.586 48.4142C276.211 48.0391 276 47.5304 276 47ZM281 38C281 38.5304 280.789 39.0391 280.414 39.4142C280.039 39.7893 279.53 40 279 40H259C258.47 40 257.961 39.7893 257.586 39.4142C257.211 39.0391 257 38.5304 257 38V26C257 25.4696 257.211 24.9609 257.586 24.5858C257.961 24.2107 258.47 24 259 24H279C279.53 24 280.039 24.2107 280.414 24.5858C280.789 24.9609 281 25.4696 281 26V38ZM269 49C268.604 49 268.218 48.8827 267.889 48.6629C267.56 48.4432 267.304 48.1308 267.152 47.7654C267.001 47.3999 266.961 46.9978 267.038 46.6098C267.116 46.2219 267.306 45.8655 267.586 45.5858C267.865 45.3061 268.222 45.1156 268.61 45.0384C268.998 44.9613 269.4 45.0009 269.765 45.1522C270.131 45.3036 270.443 45.56 270.663 45.8889C270.883 46.2178 271 46.6044 271 47C271 47.5304 270.789 48.0391 270.414 48.4142C270.039 48.7893 269.53 49 269 49ZM271 54C271 54.3956 270.883 54.7822 270.663 55.1111C270.443 55.44 270.131 55.6964 269.765 55.8478C269.4 55.9991 268.998 56.0387 268.61 55.9616C268.222 55.8844 267.865 55.6939 267.586 55.4142C267.306 55.1345 267.116 54.7781 267.038 54.3902C266.961 54.0022 267.001 53.6001 267.152 53.2346C267.304 52.8692 267.56 52.5568 267.889 52.3371C268.218 52.1173 268.604 52 269 52C269.53 52 270.039 52.2107 270.414 52.5858C270.789 52.9609 271 53.4696 271 54ZM260 49C259.604 49 259.218 48.8827 258.889 48.6629C258.56 48.4432 258.304 48.1308 258.152 47.7654C258.001 47.3999 257.961 46.9978 258.038 46.6098C258.116 46.2219 258.306 45.8655 258.586 45.5858C258.865 45.3061 259.222 45.1156 259.61 45.0384C259.998 44.9613 260.4 45.0009 260.765 45.1522C261.131 45.3036 261.443 45.56 261.663 45.8889C261.883 46.2178 262 46.6044 262 47C262 47.5304 261.789 48.0391 261.414 48.4142C261.039 48.7893 260.53 49 260 49ZM262 54C262 54.3956 261.883 54.7822 261.663 55.1111C261.443 55.44 261.131 55.6964 260.765 55.8478C260.4 55.9991 259.998 56.0387 259.61 55.9616C259.222 55.8844 258.865 55.6939 258.586 55.4142C258.306 55.1345 258.116 54.7781 258.038 54.3902C257.961 54.0022 258.001 53.6001 258.152 53.2346C258.304 52.8692 258.56 52.5568 258.889 52.3371C259.218 52.1173 259.604 52 260 52C260.53 52 261.039 52.2107 261.414 52.5858C261.789 52.9609 262 53.4696 262 54Z" fill="#FEB438"/>
</g>
<defs>
<linearGradient id="paint0_linear_3480_5165" x1="0" y1="0" x2="88.7118" y2="71.9634" gradientUnits="userSpaceOnUse">
<stop stop-color="white"/>
<stop offset="1" stop-color="#EDEDED"/>
</linearGradient>
<linearGradient id="paint1_linear_3480_5165" x1="111" y1="0" x2="199.712" y2="71.9634" gradientUnits="userSpaceOnUse">
<stop stop-color="white"/>
<stop offset="1" stop-color="#EDEDED"/>
</linearGradient>
<linearGradient id="paint2_linear_3480_5165" x1="140.48" y1="27.2478" x2="167.106" y2="55.4287" gradientUnits="userSpaceOnUse">
<stop stop-color="#F172B9"/>
<stop offset="0.495" stop-color="#FDB3AE"/>
<stop offset="1" stop-color="#FCD99B"/>
</linearGradient>
<linearGradient id="paint3_linear_3480_5165" x1="222" y1="0" x2="310.712" y2="71.9634" gradientUnits="userSpaceOnUse">
<stop stop-color="white"/>
<stop offset="1" stop-color="#EDEDED"/>
</linearGradient>
<clipPath id="clip0_3480_5165">
<rect width="48" height="48" fill="white" transform="translate(23 14)"/>
</clipPath>
<clipPath id="clip1_3480_5165">
<rect width="48" height="48" fill="white" transform="translate(245 14)"/>
</clipPath>
</defs>
</svg>
