<svg width="289" height="109" viewBox="0 0 289 109" fill="none" xmlns="http://www.w3.org/2000/svg">
<g filter="url(#filter0_d_2480_1618)">
<circle cx="54.5" cy="48.5" r="38.5" fill="url(#paint0_linear_2480_1618)"/>
<path d="M60.25 44.7386L59.125 47.2273H43.9318L44.8523 44.7386H60.25ZM58.0795 49.5L56.8409 52.0455H43.9318L44.8523 49.5H58.0795ZM63.2045 38.5227L61.3864 42.4091C61.0833 42.197 60.7159 41.9659 60.2841 41.7159C59.8598 41.4583 59.3712 41.2424 58.8182 41.0682C58.2727 40.8864 57.6667 40.7955 57 40.7955C55.947 40.7955 55.0303 41.0606 54.25 41.5909C53.4697 42.1212 52.8636 42.947 52.4318 44.0682C52.0076 45.1894 51.7955 46.6288 51.7955 48.3864C51.7955 50.1591 52.0076 51.6023 52.4318 52.7159C52.8636 53.822 53.4697 54.6364 54.25 55.1591C55.0303 55.6742 55.947 55.9318 57 55.9318C57.6667 55.9318 58.2727 55.8447 58.8182 55.6705C59.3636 55.4962 59.8409 55.2879 60.25 55.0455C60.6667 54.803 61.0152 54.5795 61.2955 54.375L63.1364 58.2614C62.3106 58.9432 61.375 59.4583 60.3295 59.8068C59.2841 60.1477 58.1742 60.3182 57 60.3182C55.0152 60.3182 53.2576 59.8485 51.7273 58.9091C50.2045 57.9621 49.0114 56.6023 48.1477 54.8295C47.2841 53.0492 46.8523 50.9015 46.8523 48.3864C46.8523 45.8788 47.2841 43.7311 48.1477 41.9432C49.0114 40.1553 50.2045 38.7879 51.7273 37.8409C53.2576 36.8864 55.0152 36.4091 57 36.4091C58.2197 36.4091 59.3485 36.5909 60.3864 36.9545C61.4242 37.3182 62.3636 37.8409 63.2045 38.5227Z" fill="#1E1E1E"/>
</g>
<g filter="url(#filter1_d_2480_1618)">
<circle cx="144.5" cy="48.5" r="38.5" fill="url(#paint1_linear_2480_1618)"/>
<path d="M143.705 63.9091V34.8182H145.568V63.9091H143.705ZM148.648 44.4205C148.557 43.5038 148.167 42.7917 147.477 42.2841C146.788 41.7765 145.852 41.5227 144.67 41.5227C143.867 41.5227 143.189 41.6364 142.636 41.8636C142.083 42.0833 141.659 42.3902 141.364 42.7841C141.076 43.178 140.932 43.625 140.932 44.125C140.917 44.5417 141.004 44.9053 141.193 45.2159C141.39 45.5265 141.659 45.7955 142 46.0227C142.341 46.2424 142.735 46.4356 143.182 46.6023C143.629 46.7614 144.106 46.8977 144.614 47.0114L146.705 47.5114C147.72 47.7386 148.652 48.0417 149.5 48.4205C150.348 48.7992 151.083 49.2652 151.705 49.8182C152.326 50.3712 152.807 51.0227 153.148 51.7727C153.496 52.5227 153.674 53.3826 153.682 54.3523C153.674 55.7765 153.311 57.0114 152.591 58.0568C151.879 59.0947 150.848 59.9015 149.5 60.4773C148.159 61.0455 146.542 61.3295 144.648 61.3295C142.769 61.3295 141.133 61.0417 139.739 60.4659C138.352 59.8902 137.269 59.0379 136.489 57.9091C135.716 56.7727 135.311 55.3674 135.273 53.6932H140.034C140.087 54.4735 140.311 55.125 140.705 55.6477C141.106 56.1629 141.64 56.553 142.307 56.8182C142.981 57.0758 143.742 57.2045 144.591 57.2045C145.424 57.2045 146.148 57.0833 146.761 56.8409C147.383 56.5985 147.864 56.2614 148.205 55.8295C148.545 55.3977 148.716 54.9015 148.716 54.3409C148.716 53.8182 148.561 53.3788 148.25 53.0227C147.947 52.6667 147.5 52.3636 146.909 52.1136C146.326 51.8636 145.61 51.6364 144.761 51.4318L142.227 50.7955C140.265 50.3182 138.716 49.572 137.58 48.5568C136.443 47.5417 135.879 46.1742 135.886 44.4545C135.879 43.0455 136.254 41.8144 137.011 40.7614C137.777 39.7083 138.826 38.8864 140.159 38.2955C141.492 37.7045 143.008 37.4091 144.705 37.4091C146.432 37.4091 147.939 37.7045 149.227 38.2955C150.523 38.8864 151.53 39.7083 152.25 40.7614C152.97 41.8144 153.341 43.0341 153.364 44.4205H148.648Z" fill="#1E1E1E"/>
</g>
<g filter="url(#filter2_d_2480_1618)">
<circle cx="234.5" cy="48.5" r="38.5" fill="url(#paint2_linear_2480_1618)"/>
<path d="M243.159 60H226.25V55.9432H243.159V60ZM238.659 50.7386H226.193V46.8636H238.659V50.7386ZM233.409 43.3068L233.773 52.9773C233.811 54.0152 233.602 54.8826 233.148 55.5795C232.701 56.2689 231.928 56.8561 230.83 57.3409L227.739 55.9432C228.072 55.875 228.322 55.7045 228.489 55.4318C228.663 55.1515 228.777 54.8182 228.83 54.4318C228.89 54.0455 228.917 53.6515 228.909 53.25L228.568 43.3068C228.508 41.8295 228.792 40.5795 229.42 39.5568C230.057 38.5265 230.936 37.7462 232.057 37.2159C233.178 36.678 234.443 36.4091 235.852 36.4091C237.042 36.4091 238.098 36.5758 239.023 36.9091C239.947 37.2348 240.727 37.7008 241.364 38.3068C242.008 38.9053 242.485 39.6136 242.795 40.4318C243.106 41.25 243.242 42.1477 243.205 43.125L238.602 43C238.617 42.3561 238.504 41.8409 238.261 41.4545C238.019 41.0682 237.693 40.7879 237.284 40.6136C236.875 40.4394 236.424 40.3523 235.932 40.3523C235.455 40.3523 235.023 40.4621 234.636 40.6818C234.258 40.8939 233.955 41.2197 233.727 41.6591C233.508 42.0909 233.402 42.6402 233.409 43.3068Z" fill="#1E1E1E"/>
</g>
<defs>
<filter id="filter0_d_2480_1618" x="0" y="0" width="109" height="109" filterUnits="userSpaceOnUse" color-interpolation-filters="sRGB">
<feFlood flood-opacity="0" result="BackgroundImageFix"/>
<feColorMatrix in="SourceAlpha" type="matrix" values="0 0 0 0 0 0 0 0 0 0 0 0 0 0 0 0 0 0 127 0" result="hardAlpha"/>
<feMorphology radius="1" operator="dilate" in="SourceAlpha" result="effect1_dropShadow_2480_1618"/>
<feOffset dy="6"/>
<feGaussianBlur stdDeviation="7.5"/>
<feComposite in2="hardAlpha" operator="out"/>
<feColorMatrix type="matrix" values="0 0 0 0 0.429167 0 0 0 0 0.42559 0 0 0 0 0.42559 0 0 0 0.15 0"/>
<feBlend mode="normal" in2="BackgroundImageFix" result="effect1_dropShadow_2480_1618"/>
<feBlend mode="normal" in="SourceGraphic" in2="effect1_dropShadow_2480_1618" result="shape"/>
</filter>
<filter id="filter1_d_2480_1618" x="90" y="0" width="109" height="109" filterUnits="userSpaceOnUse" color-interpolation-filters="sRGB">
<feFlood flood-opacity="0" result="BackgroundImageFix"/>
<feColorMatrix in="SourceAlpha" type="matrix" values="0 0 0 0 0 0 0 0 0 0 0 0 0 0 0 0 0 0 127 0" result="hardAlpha"/>
<feMorphology radius="1" operator="dilate" in="SourceAlpha" result="effect1_dropShadow_2480_1618"/>
<feOffset dy="6"/>
<feGaussianBlur stdDeviation="7.5"/>
<feComposite in2="hardAlpha" operator="out"/>
<feColorMatrix type="matrix" values="0 0 0 0 0.429167 0 0 0 0 0.42559 0 0 0 0 0.42559 0 0 0 0.15 0"/>
<feBlend mode="normal" in2="BackgroundImageFix" result="effect1_dropShadow_2480_1618"/>
<feBlend mode="normal" in="SourceGraphic" in2="effect1_dropShadow_2480_1618" result="shape"/>
</filter>
<filter id="filter2_d_2480_1618" x="180" y="0" width="109" height="109" filterUnits="userSpaceOnUse" color-interpolation-filters="sRGB">
<feFlood flood-opacity="0" result="BackgroundImageFix"/>
<feColorMatrix in="SourceAlpha" type="matrix" values="0 0 0 0 0 0 0 0 0 0 0 0 0 0 0 0 0 0 127 0" result="hardAlpha"/>
<feMorphology radius="1" operator="dilate" in="SourceAlpha" result="effect1_dropShadow_2480_1618"/>
<feOffset dy="6"/>
<feGaussianBlur stdDeviation="7.5"/>
<feComposite in2="hardAlpha" operator="out"/>
<feColorMatrix type="matrix" values="0 0 0 0 0.429167 0 0 0 0 0.42559 0 0 0 0 0.42559 0 0 0 0.15 0"/>
<feBlend mode="normal" in2="BackgroundImageFix" result="effect1_dropShadow_2480_1618"/>
<feBlend mode="normal" in="SourceGraphic" in2="effect1_dropShadow_2480_1618" result="shape"/>
</filter>
<linearGradient id="paint0_linear_2480_1618" x1="41.9604" y1="-7.50566" x2="59.0057" y2="87.5413" gradientUnits="userSpaceOnUse">
<stop stop-color="#F6E9F0"/>
<stop offset="1" stop-color="#F4F8F9"/>
</linearGradient>
<linearGradient id="paint1_linear_2480_1618" x1="131.96" y1="-7.50566" x2="149.006" y2="87.5413" gradientUnits="userSpaceOnUse">
<stop stop-color="#F6E9F0"/>
<stop offset="1" stop-color="#F4F8F9"/>
</linearGradient>
<linearGradient id="paint2_linear_2480_1618" x1="221.96" y1="-7.50566" x2="239.006" y2="87.5413" gradientUnits="userSpaceOnUse">
<stop stop-color="#F6E9F0"/>
<stop offset="1" stop-color="#F4F8F9"/>
</linearGradient>
</defs>
</svg>
