<svg width="143" height="76" viewBox="0 0 143 76" fill="none" xmlns="http://www.w3.org/2000/svg">
<g clip-path="url(#clip0_3480_5164)">
<path d="M81.227 4.09861V61.0963C80.341 63.2651 78.7075 64.0034 76.4003 63.9942C52.8573 63.948 29.3052 63.948 5.76226 63.9942C3.45504 63.9942 1.82152 63.2651 0.935547 61.0963V4.09861C1.97841 1.02538 4.18412 0.000976562 7.3404 0.000976562C29.8312 0.0655789 52.3313 0.0655789 74.8221 0.000976562C77.9784 0.000976562 80.1841 1.01616 81.227 4.09861ZM78.6614 51.2768V50.0032C78.6614 35.2831 78.6614 20.5537 78.6614 5.83364C78.6614 3.49873 77.8031 2.64044 75.4497 2.64044C52.5343 2.64044 29.6282 2.64044 6.71284 2.64044C4.35947 2.64044 3.51041 3.4895 3.51041 5.83364C3.51041 20.5537 3.51041 35.2831 3.51041 50.0032C3.51041 50.4092 3.54733 50.8153 3.56578 51.2768H78.6614ZM41.1182 54.876C39.5862 54.8576 38.3218 56.1035 38.3218 57.6355C38.3218 59.1305 39.5031 60.358 40.989 60.4134C42.5117 60.4595 43.813 59.2413 43.8499 57.7093C43.8869 56.1865 42.641 54.8945 41.1182 54.876Z" fill="url(#paint0_linear_3480_5164)"/>
<path d="M41.0268 76.0014C34.6496 76.0014 28.2724 76.0014 21.8953 76.0014C21.5907 76.0014 21.2769 76.0014 20.9724 76.0014C20.0864 75.9921 19.4311 75.6322 19.4496 74.6724C19.4588 73.768 20.0956 73.4357 20.9262 73.408C21.2308 73.3988 21.5446 73.408 21.8491 73.408C24.1563 73.408 26.4543 73.3804 28.7616 73.4265C29.4722 73.4357 29.7767 73.1773 29.9705 72.5313C30.4874 70.8055 31.0872 69.0982 31.6133 67.3723C31.7886 66.8094 32.0471 66.5879 32.6654 66.5879C38.2766 66.6063 43.8785 66.6063 49.4897 66.5879C50.0988 66.5879 50.3756 66.7909 50.551 67.3631C51.0586 69.052 51.6677 70.7132 52.1476 72.4113C52.3599 73.1681 52.6921 73.4542 53.5042 73.4357C56.0422 73.3804 58.5709 73.4173 61.1089 73.4173C61.9764 73.4173 62.687 73.7126 62.7147 74.6724C62.7424 75.706 61.9948 76.0198 61.0812 76.0106C60.8135 76.0106 60.5459 76.0106 60.2783 76.0106C57.242 76.0106 54.2056 76.0106 51.1786 76.0106C47.8008 76.0106 44.4138 76.0106 41.036 76.0106L41.0268 76.0014Z" fill="url(#paint1_linear_3480_5164)"/>
<path d="M14.2796 25.9985C18.7926 31.1667 26.6464 31.905 31.953 26.0262C34.0941 27.8627 35.3585 30.1792 35.543 32.9663C35.7092 35.4489 35.6353 37.9591 35.6076 40.4509C35.5984 41.623 34.8878 42.3429 33.7249 42.3521C26.6187 42.3798 19.5124 42.3798 12.4062 42.3521C11.4187 42.3521 10.625 41.7614 10.625 40.737C10.6342 37.673 10.5973 34.5906 10.9203 31.5451C11.1603 29.3301 12.4892 27.512 14.2796 25.9893V25.9985Z" fill="url(#paint2_linear_3480_5164)"/>
<path d="M23.0753 10.3184C27.8467 10.3 31.7597 14.1853 31.7505 18.9382C31.7505 23.6911 27.819 27.6134 23.0846 27.5949C18.3778 27.5765 14.5294 23.728 14.4925 19.0028C14.4555 14.1946 18.2671 10.3369 23.0753 10.3184Z" fill="url(#paint3_linear_3480_5164)"/>
<path d="M57.795 12.3672C61.6712 12.3672 65.5473 12.3672 69.4234 12.3672C69.7649 12.3672 70.2079 12.2565 70.4386 12.4226C70.8724 12.7456 71.4815 13.2347 71.4815 13.65C71.4815 14.0746 70.8724 14.5637 70.4294 14.8867C70.1987 15.0528 69.7557 14.9421 69.4142 14.9421C61.6989 14.9421 53.9835 14.9421 46.2681 14.9421C45.9636 14.9421 45.5667 15.0528 45.3637 14.9052C44.893 14.5545 44.2747 14.1207 44.1639 13.6316C44.0163 12.9394 44.5885 12.441 45.3545 12.3857C45.9267 12.3395 46.5081 12.3672 47.0803 12.3672C50.6519 12.3672 54.2234 12.3672 57.7858 12.3672H57.795Z" fill="url(#paint4_linear_3480_5164)"/>
<path d="M57.8045 27.6325C53.7715 27.6325 49.7384 27.6602 45.7146 27.5956C45.2163 27.5956 44.5795 27.171 44.2749 26.7557C44.0903 26.5066 44.3026 25.7867 44.5518 25.4545C44.7548 25.1868 45.2901 25.0761 45.6869 25.0761C53.7899 25.0576 61.8929 25.0668 69.9866 25.0576C70.8634 25.0576 71.5555 25.3345 71.5463 26.322C71.5463 27.3648 70.8265 27.6417 69.8943 27.6417C65.8613 27.6325 61.8283 27.6417 57.8045 27.6417V27.6325Z" fill="url(#paint5_linear_3480_5164)"/>
<path d="M57.9334 40.3134C54.0203 40.3134 50.098 40.3134 46.185 40.3134C45.8066 40.3134 45.3082 40.3965 45.0683 40.2027C44.6714 39.8797 44.2007 39.3629 44.1915 38.9199C44.1823 38.5507 44.736 38.0985 45.1236 37.8032C45.3267 37.6463 45.7143 37.7294 46.0188 37.7294C53.8911 37.7294 61.7541 37.7294 69.6264 37.7294C69.894 37.7294 70.2539 37.6371 70.4108 37.7755C70.8354 38.1262 71.4722 38.5784 71.4722 38.9937C71.4722 39.4182 70.8815 39.9166 70.4477 40.2581C70.2263 40.4334 69.7833 40.3227 69.4326 40.3227C65.5933 40.3227 61.7541 40.3227 57.9149 40.3227L57.9334 40.3134Z" fill="url(#paint6_linear_3480_5164)"/>
</g>
<rect x="90.4531" y="13.8438" width="52.4873" height="14.8334" rx="3.69156" fill="#E8E8E8"/>
<rect x="90.4531" y="30.3887" width="52.4873" height="14.8334" rx="3.69156" fill="#E8E8E8"/>
<defs>
<linearGradient id="paint0_linear_3480_5164" x1="12.5778" y1="9.59997" x2="56.5955" y2="66.384" gradientUnits="userSpaceOnUse">
<stop stop-color="#79C8A4"/>
<stop offset="0.5" stop-color="#95DBCF"/>
<stop offset="1" stop-color="#4FD1DA"/>
</linearGradient>
<linearGradient id="paint1_linear_3480_5164" x1="25.7228" y1="68.0013" x2="28.4364" y2="80.8122" gradientUnits="userSpaceOnUse">
<stop stop-color="#79C8A4"/>
<stop offset="0.5" stop-color="#95DBCF"/>
<stop offset="1" stop-color="#4FD1DA"/>
</linearGradient>
<linearGradient id="paint2_linear_3480_5164" x1="14.2533" y1="28.4468" x2="24.798" y2="45.0056" gradientUnits="userSpaceOnUse">
<stop stop-color="#79C8A4"/>
<stop offset="0.5" stop-color="#95DBCF"/>
<stop offset="1" stop-color="#4FD1DA"/>
</linearGradient>
<linearGradient id="paint3_linear_3480_5164" x1="16.9946" y1="12.9099" x2="29.2614" y2="25.5088" gradientUnits="userSpaceOnUse">
<stop stop-color="#79C8A4"/>
<stop offset="0.5" stop-color="#95DBCF"/>
<stop offset="1" stop-color="#4FD1DA"/>
</linearGradient>
<linearGradient id="paint4_linear_3480_5164" x1="48.1051" y1="12.7287" x2="48.457" y2="16.4612" gradientUnits="userSpaceOnUse">
<stop stop-color="#79C8A4"/>
<stop offset="0.5" stop-color="#95DBCF"/>
<stop offset="1" stop-color="#4FD1DA"/>
</linearGradient>
<linearGradient id="paint5_linear_3480_5164" x1="48.1696" y1="25.4452" x2="48.5042" y2="29.0853" gradientUnits="userSpaceOnUse">
<stop stop-color="#79C8A4"/>
<stop offset="0.5" stop-color="#95DBCF"/>
<stop offset="1" stop-color="#4FD1DA"/>
</linearGradient>
<linearGradient id="paint6_linear_3480_5164" x1="48.1471" y1="38.0979" x2="48.5017" y2="41.8401" gradientUnits="userSpaceOnUse">
<stop stop-color="#79C8A4"/>
<stop offset="0.5" stop-color="#95DBCF"/>
<stop offset="1" stop-color="#4FD1DA"/>
</linearGradient>
<clipPath id="clip0_3480_5164">
<rect width="80.2914" height="76" fill="white" transform="translate(0.933594)"/>
</clipPath>
</defs>
</svg>
