<svg width="80" height="80" viewBox="0 0 80 80" fill="none" xmlns="http://www.w3.org/2000/svg">
<rect width="80" height="80" rx="10" fill="white"/>
<g clip-path="url(#clip0_2187_5014)">
<g clip-path="url(#clip1_2187_5014)">
<path d="M39.2161 55.625C36.5889 52.5866 33.9436 49.563 31.3394 46.5066C29.9378 44.8578 29.4614 42.8153 29.4252 40.7563C29.3315 35.4982 29.4022 30.2368 29.4071 24.9771C29.8984 25.0247 29.8425 24.7605 29.7111 24.4521C30.0068 24.4259 30.3042 24.3783 30.6016 24.3783C36.8896 24.375 43.1792 24.375 49.4671 24.375C51.8347 24.375 52.653 25.2002 52.6546 27.5758C52.6546 30.7553 52.6579 33.9331 52.6546 37.1126C52.653 38.8942 51.7115 39.7096 49.9387 39.8688C48.2693 40.018 47.0814 39.4094 45.859 38.3512C41.1204 34.2481 36.3014 30.2385 31.5069 26.1993C31.3114 26.0336 31.1603 25.7728 30.7725 25.7941C30.8021 26.1239 31.0354 26.3142 31.2128 26.5209C33.5197 29.2049 35.7822 31.9299 38.1613 34.55C39.553 36.0823 40.1379 37.8607 40.1625 39.8212C40.22 44.4657 40.1872 49.1135 40.1757 53.758C40.1757 54.4356 40.1149 55.1213 39.5447 55.6217H39.2161V55.625ZM30.439 25.5726C30.5129 25.6251 30.5868 25.7318 30.6657 25.5923C30.6772 25.5726 30.5836 25.4972 30.5392 25.4463C30.4817 25.3954 30.4225 25.3446 30.365 25.2921C30.3256 25.1658 30.2073 25.0952 30.1284 25.1805C30.02 25.2987 30.1991 25.3265 30.2615 25.3872C30.3207 25.4496 30.3798 25.5103 30.4373 25.571L30.439 25.5726Z" fill="#030303"/>
<path d="M29.7106 24.4505C29.842 24.7589 29.8995 25.023 29.4066 24.9754C29.4099 24.7458 29.2259 24.4078 29.7106 24.4505Z" fill="#030303"/>
<path d="M30.2576 25.39C30.1951 25.3277 30.0177 25.2998 30.1261 25.1817C30.205 25.0964 30.3233 25.1669 30.3627 25.2933C30.325 25.3228 30.2904 25.3556 30.2592 25.39H30.2576Z" fill="#030303"/>
<path d="M30.4395 25.5738C30.3803 25.5114 30.3212 25.4507 30.2637 25.39C30.2949 25.3556 30.3294 25.3227 30.3672 25.2932C30.4247 25.3441 30.4838 25.3949 30.5413 25.4474C30.5003 25.4835 30.4674 25.5262 30.4395 25.5738Z" fill="#030303"/>
<path d="M30.5397 25.4465C30.584 25.4958 30.6761 25.5729 30.6662 25.5925C30.5873 25.732 30.5117 25.6254 30.4395 25.5729C30.4657 25.5253 30.5002 25.4826 30.5413 25.4465H30.5397Z" fill="#030303"/>
</g>
</g>
<defs>
<clipPath id="clip0_2187_5014">
<rect width="40" height="50" fill="white" transform="translate(20 15)"/>
</clipPath>
<clipPath id="clip1_2187_5014">
<rect width="131.254" height="31.25" fill="white" transform="translate(29.375 24.375)"/>
</clipPath>
</defs>
</svg>
