<svg width="105" height="31" viewBox="0 0 105 31" fill="none" xmlns="http://www.w3.org/2000/svg">
<path d="M0.215909 30V26.3494L14.733 5.98011H0.1875V0.90909H22.4602V4.55966L7.92898 24.929H22.4886V30H0.215909ZM27.2081 30V0.90909H46.8104V5.98011H33.3587V12.9119H45.8018V17.983H33.3587V24.929H46.8672V30H27.2081ZM51.7003 30V0.90909H63.1776C65.3745 0.90909 67.2495 1.30208 68.8026 2.08807C70.3651 2.86458 71.5535 3.9678 72.3679 5.39773C73.1918 6.81818 73.6037 8.48958 73.6037 10.4119C73.6037 12.3437 73.187 14.0057 72.3537 15.3977C71.5204 16.7803 70.313 17.8409 68.7315 18.5795C67.1596 19.3182 65.2562 19.6875 63.0213 19.6875H55.3366V14.7443H62.027C63.2012 14.7443 64.1766 14.5833 64.9531 14.2614C65.7296 13.9394 66.3073 13.4564 66.6861 12.8125C67.0743 12.1686 67.2685 11.3684 67.2685 10.4119C67.2685 9.44602 67.0743 8.63163 66.6861 7.96875C66.3073 7.30587 65.7249 6.80398 64.9389 6.46307C64.1624 6.11269 63.1823 5.9375 61.9986 5.9375H57.8509V30H51.7003ZM67.4105 16.7614L74.6406 30H67.8509L60.777 16.7614H67.4105ZM104.683 15.4545C104.683 18.6269 104.082 21.3258 102.879 23.5511C101.686 25.7765 100.057 27.4763 97.9929 28.6506C95.938 29.8153 93.6274 30.3977 91.0611 30.3977C88.4759 30.3977 86.1558 29.8106 84.1009 28.6364C82.0459 27.4621 80.4219 25.7623 79.2287 23.5369C78.0355 21.3116 77.4389 18.6174 77.4389 15.4545C77.4389 12.2822 78.0355 9.58333 79.2287 7.35795C80.4219 5.13258 82.0459 3.4375 84.1009 2.27273C86.1558 1.09848 88.4759 0.511363 91.0611 0.511363C93.6274 0.511363 95.938 1.09848 97.9929 2.27273C100.057 3.4375 101.686 5.13258 102.879 7.35795C104.082 9.58333 104.683 12.2822 104.683 15.4545ZM98.4474 15.4545C98.4474 13.3996 98.1397 11.6667 97.5241 10.2557C96.9181 8.8447 96.0611 7.77462 94.9531 7.04545C93.8452 6.31629 92.5478 5.9517 91.0611 5.9517C89.5743 5.9517 88.277 6.31629 87.169 7.04545C86.0611 7.77462 85.1993 8.8447 84.5838 10.2557C83.9777 11.6667 83.6747 13.3996 83.6747 15.4545C83.6747 17.5095 83.9777 19.2424 84.5838 20.6534C85.1993 22.0644 86.0611 23.1345 87.169 23.8636C88.277 24.5928 89.5743 24.9574 91.0611 24.9574C92.5478 24.9574 93.8452 24.5928 94.9531 23.8636C96.0611 23.1345 96.9181 22.0644 97.5241 20.6534C98.1397 19.2424 98.4474 17.5095 98.4474 15.4545Z" fill="#7049F7"/>
</svg>
